<svg width="1000" height="1000" viewBox="0 0 1000 1000" fill="none" xmlns="http://www.w3.org/2000/svg">
<path fill-rule="evenodd" clip-rule="evenodd" d="M499.699 673.326C590.584 673.326 664.262 595.529 664.262 499.564C664.262 403.597 590.584 325.802 499.699 325.802C408.813 325.802 335.136 403.597 335.136 499.564C335.136 595.529 408.813 673.326 499.699 673.326ZM499.699 615.405C560.288 615.405 609.408 563.54 609.408 499.564C609.408 435.586 560.288 383.722 499.699 383.722C439.108 383.722 389.99 435.586 389.99 499.564C389.99 563.54 439.108 615.405 499.699 615.405Z" fill="#333333"/>
<path d="M664.262 296.841C649.114 296.841 636.835 309.807 636.835 325.802C636.835 341.796 649.114 354.762 664.262 354.762C679.41 354.762 691.689 341.796 691.689 325.802C691.689 309.807 679.41 296.841 664.262 296.841Z" fill="#333333"/>
<path fill-rule="evenodd" clip-rule="evenodd" d="M215.936 275.876C198 313.045 198 361.703 198 459.019V540.108C198 637.423 198 686.083 215.936 723.25C231.714 755.946 256.888 782.529 287.853 799.187C323.055 818.127 369.137 818.127 461.301 818.127H538.097C630.261 818.127 676.344 818.127 711.544 799.187C742.509 782.529 767.685 755.946 783.461 723.25C801.398 686.083 801.398 637.423 801.398 540.108V459.019C801.398 361.703 801.398 313.045 783.461 275.876C767.685 243.18 742.509 216.598 711.544 199.939C676.344 181 630.261 181 538.097 181H461.301C369.137 181 323.055 181 287.853 199.939C256.888 216.598 231.714 243.18 215.936 275.876ZM538.097 238.921H461.301C414.314 238.921 382.373 238.966 357.683 241.096C333.634 243.17 321.336 246.931 312.757 251.546C292.113 262.653 275.33 280.374 264.812 302.171C260.44 311.23 256.879 324.216 254.914 349.609C252.897 375.679 252.854 409.405 252.854 459.019V540.108C252.854 589.723 252.897 623.447 254.914 649.517C256.879 674.913 260.44 687.898 264.812 696.957C275.33 718.753 292.113 736.473 312.757 747.58C321.336 752.196 333.634 755.958 357.683 758.032C382.373 760.16 414.314 760.207 461.301 760.207H538.097C585.086 760.207 617.025 760.16 641.715 758.032C665.765 755.958 678.064 752.196 686.643 747.58C707.285 736.473 724.067 718.753 734.586 696.957C738.958 687.898 742.52 674.913 744.484 649.517C746.5 623.447 746.544 589.723 746.544 540.108V459.019C746.544 409.405 746.5 375.679 744.484 349.609C742.52 324.216 738.958 311.23 734.586 302.171C724.067 280.374 707.285 262.653 686.643 251.546C678.064 246.931 665.765 243.17 641.715 241.096C617.025 238.966 585.086 238.921 538.097 238.921Z" fill="#333333"/>
</svg>
