<svg width="1000" height="1000" viewBox="0 0 1000 1000" fill="none" xmlns="http://www.w3.org/2000/svg">
<g clip-path="url(#clip0_17_8)">
<path fill-rule="evenodd" clip-rule="evenodd" d="M815 816H689V594.831C689 534.159 662.32 500.309 614.471 500.309C562.402 500.309 531.5 535.581 531.5 594.831V816H405.5V405.2H531.5V451.396C531.5 451.396 571.032 381.809 660.114 381.809C749.228 381.809 815 436.361 815 549.236V816ZM261.923 339.5C219.43 339.5 185 304.679 185 261.735C185 218.822 219.43 184 261.923 184C304.385 184 338.814 218.822 338.814 261.735C338.846 304.679 304.385 339.5 261.923 339.5ZM185 816H342.5V405.2H185V816Z" fill="#333333"/>
</g>
<defs>
<clipPath id="clip0_17_8">
<rect width="630" height="632" fill="white" transform="translate(185 184)"/>
</clipPath>
</defs>
</svg>
