<svg width="1000" height="1000" viewBox="0 0 1000 1000" fill="none" xmlns="http://www.w3.org/2000/svg">
<rect width="1000" height="1000" fill="#333333"/>
<g clip-path="url(#clip0_2_47)">
<path d="M363.38 444.048H357.256H266.774H260.65H193.002V463.356C193.002 532.941 246.391 589.552 312.015 589.552C377.639 589.552 431.027 532.941 431.027 463.356V444.048H363.38Z" fill="#F2F2F2"/>
<path d="M738.351 444.048H732.227H641.746H635.622H567.976V463.356C567.976 532.941 621.364 589.552 686.988 589.552C752.612 589.552 805.999 532.941 805.999 463.356V444.048H738.351Z" fill="#F2F2F2"/>
<path d="M684.878 757.822H314.125V825H684.878V757.822Z" fill="#F2F2F2"/>
<path d="M585.73 652.03H413.27C378.338 652.03 349.917 682.165 349.917 719.206H649.08C649.081 682.165 620.661 652.03 585.73 652.03Z" fill="#F2F2F2"/>
<path d="M697.87 294.781H550.656V227.996C550.656 198.774 528.235 175 500.678 175C473.118 175 450.697 198.774 450.697 227.996V294.782H301.131L245.008 405.435H286.359L312.014 354.852L337.668 405.433H379.019L342.481 333.396H450.697V613.415H550.656V333.396H656.519L619.981 405.433H661.332L686.987 354.851L712.641 405.433H753.992L697.87 294.781Z" fill="#F2F2F2"/>
</g>
<defs>
<clipPath id="clip0_2_47">
<rect width="613" height="650" fill="white" transform="translate(193 175)"/>
</clipPath>
</defs>
</svg>
