<svg width="1000" height="1000" viewBox="0 0 1000 1000" fill="none" xmlns="http://www.w3.org/2000/svg">
<rect width="1000" height="1000" fill="#333333"/>
<path d="M784.917 213.25H214.083V785.75H784.917V213.25Z" stroke="#F2F2F2" stroke-width="0.001875"/>
<path d="M725.455 642.625H273.545V690.333H725.455V642.625Z" fill="#F2F2F2" stroke="#F2F2F2" stroke-width="0.001875"/>
<path d="M737.347 714.188H261.653C255.345 714.188 249.295 716.701 244.834 721.174C240.374 725.648 237.868 731.715 237.868 738.042V761.896H761.132V738.042C761.132 731.715 758.626 725.648 754.166 721.174C749.705 716.701 743.655 714.188 737.347 714.188Z" fill="#F2F2F2" stroke="#F2F2F2" stroke-width="0.001875"/>
<path d="M380.576 427.938H333.007V618.771H380.576V427.938Z" fill="#F2F2F2" stroke="#F2F2F2" stroke-width="0.001875"/>
<path d="M523.285 427.938H475.715V618.771H523.285V427.938Z" fill="#F2F2F2" stroke="#F2F2F2" stroke-width="0.001875"/>
<path d="M665.993 427.938H618.424V618.771H665.993V427.938Z" fill="#F2F2F2" stroke="#F2F2F2" stroke-width="0.001875"/>
<path d="M748.05 349.219L499.5 237.104L250.95 349.219C247.075 351.322 243.823 354.416 241.526 358.186C239.228 361.957 237.966 366.27 237.868 370.688V380.229C237.868 386.556 240.374 392.623 244.834 397.097C249.295 401.57 255.345 404.083 261.653 404.083H737.347C743.655 404.083 749.705 401.57 754.166 397.097C758.626 392.623 761.132 386.556 761.132 380.229V370.688C761.034 366.27 759.772 361.957 757.474 358.186C755.177 354.416 751.925 351.322 748.05 349.219Z" fill="#F2F2F2" stroke="#F2F2F2" stroke-width="0.001875"/>
</svg>
